<svg width="800" height="800" viewBox="0 0 800 800" fill="none" xmlns="http://www.w3.org/2000/svg">
<path d="M200 150C155.817 150 120 185.817 120 230V370C120 414.183 155.817 450 200 450H340C384.183 450 420 414.183 420 370V230C420 185.817 384.183 150 340 150H200Z" stroke="#000" stroke-width="40" stroke-linecap="round" stroke-linejoin="round" fill="none"/>
<path d="M460 350C415.817 350 380 385.817 380 430V570C380 614.183 415.817 650 460 650H600C644.183 650 680 614.183 680 570V430C680 385.817 644.183 350 600 350H460Z" stroke="#000" stroke-width="40" stroke-linecap="round" stroke-linejoin="round" fill="none"/>
<path d="M270 450L530 350" stroke="#000" stroke-width="40" stroke-linecap="round"/>
<path d="M530 450L270 350" stroke="#000" stroke-width="40" stroke-linecap="round"/>
</svg>
